# xmcd CD database file
#
# Track frame offsets:
#	150
#	13694
#	23622
#	33179
#	44712
#	56003
#	64504
#	77009
#	88360
#	98664
#
# Disc length: 1489 seconds
#
# Revision: 0
# Processed by: cddbd v1.5.2PL0 Copyright (c) Steve Scherf et al.
# Submitted via: CDex 1.77
#
DISCID=7605cf0a
DTITLE=Various Artist - Country Classics Hits of the 1961's
DYEAR=1999
DGENRE=Country
TTITLE0=Jimmy Dean - Big Bad John
TTITLE1=Don Gibson - Lonesome Number One
TTITLE2=Claude Gray - I'll Just Have A Cup Of Coffee (Then I'll Go)
TTITLE3=Wanda Jackson - In The Middle OOf A Heartache
TTITLE4=Claude King - Big River, Big Man
TTITLE5=Warren Smith - Odds And Ends
TTITLE6=Hank Thompson - Oklahoma Hills
TTITLE7=Kitty Wells - Heartbreak, U.S.A.
TTITLE8=Faron Young - Hello Walls
TTITLE9=Wilma Lee Cooper - Wreck On The Highway
EXTD=YEAR: 1999
EXTT0=
EXTT1=
EXTT2=
EXTT3=
EXTT4=
EXTT5=
EXTT6=
EXTT7=
EXTT8=
EXTT9=
PLAYORDER=
